<?xml version="1.0" standalone="no"?>
<!DOCTYPE svg PUBLIC "-//W3C//DTD SVG 20010904//EN"
 "http://www.w3.org/TR/2001/REC-SVG-20010904/DTD/svg10.dtd">
<svg version="1.0" xmlns="http://www.w3.org/2000/svg"
 width="19104.000000pt" height="1781.000000pt" viewBox="0 0 19104.000000 1781.000000"
 preserveAspectRatio="xMidYMid meet">

<g transform="translate(0.000000,1781.000000) scale(0.100000,-0.100000)"
stroke="none">
<path d="M830 8910 l0 -8400 8755 0 8755 0 0 8400 0 8400 -8755 0 -8755 0 0
-8400z m12232 5045 c374 -49 670 -186 899 -414 190 -191 309 -417 366 -697 26
-128 26 -510 0 -639 -62 -307 -230 -642 -480 -955 -152 -191 -312 -359 -1559
-1630 -278 -283 -505 -516 -504 -517 2 -2 47 2 102 7 57 5 589 9 1264 9 1235
0 1210 1 1262 -46 49 -45 58 -82 58 -253 l0 -160 -1715 0 -1715 0 0 123 c0
107 3 128 24 172 19 40 214 243 966 1005 943 954 1129 1147 1291 1335 268 311
434 604 507 894 25 98 27 122 27 321 0 191 -3 225 -23 304 -72 284 -251 504
-509 623 -242 112 -609 136 -880 57 -296 -86 -535 -281 -672 -549 -43 -83 -92
-224 -110 -313 -13 -63 -34 -107 -70 -145 -60 -66 -109 -73 -288 -46 -165 26
-154 13 -129 154 47 263 138 498 273 702 76 115 249 293 366 376 208 149 492
255 767 286 124 14 361 12 482 -4z m-4972 -2810 c268 -42 466 -104 677 -210
180 -91 304 -178 441 -310 181 -173 296 -333 412 -570 173 -356 263 -741 290
-1243 5 -100 10 -1179 10 -2484 l0 -2308 -177 0 c-166 0 -182 2 -228 24 -55
25 -100 71 -122 125 -10 24 -113 878 -113 938 0 3 -51 -41 -112 -99 -443 -410
-721 -613 -1083 -789 -409 -199 -796 -291 -1310 -314 -245 -11 -528 21 -755
85 -647 182 -1088 645 -1215 1274 -67 333 -56 662 31 922 144 430 489 786
1022 1053 512 257 1248 448 2097 546 299 34 617 56 1159 81 l138 6 -5 527 c-4
456 -7 545 -25 671 -43 308 -107 527 -219 750 -283 564 -771 821 -1518 797
-393 -13 -627 -69 -996 -240 -231 -107 -506 -292 -768 -516 -117 -101 -194
-141 -268 -141 -106 0 -157 39 -247 188 -35 59 -68 117 -75 129 -10 20 1 32
133 153 437 400 860 663 1311 817 201 68 490 129 730 153 148 14 663 5 785
-15z"/>
<path d="M9005 7404 c-22 -2 -125 -8 -230 -14 -1473 -83 -2502 -366 -2991
-823 -163 -152 -277 -339 -331 -542 -24 -91 -27 -116 -27 -290 0 -206 14 -309
61 -459 76 -242 228 -461 428 -612 126 -95 345 -187 547 -228 373 -76 913 -26
1345 125 455 160 796 389 1270 853 l173 169 0 913 0 914 -102 -2 c-57 -1 -121
-3 -143 -4z"/>
<path d="M65950 9110 l0 -5140 340 0 340 0 0 2643 0 2642 76 95 c306 384 661
691 1050 909 287 160 627 267 962 302 148 15 514 6 642 -16 379 -65 650 -195
876 -419 330 -329 512 -799 554 -1431 6 -103 10 -969 10 -2442 l0 -2283 341 0
340 0 -4 2393 c-4 2586 -2 2476 -57 2805 -212 1263 -1009 1942 -2280 1942
-726 0 -1304 -212 -1925 -706 -110 -88 -421 -391 -528 -514 l-56 -65 -1 2213
0 2212 -340 0 -340 0 0 -5140z"/>
<path d="M120500 9110 l0 -5140 335 0 335 0 0 5140 0 5140 -335 0 -335 0 0
-5140z"/>
<path d="M184580 9110 l0 -5140 230 0 c188 0 237 3 270 16 46 19 73 51 89 109
6 22 22 233 35 468 13 236 26 430 28 432 2 2 42 -49 90 -113 360 -483 817
-794 1353 -922 537 -128 1191 -104 1705 62 1025 331 1718 1213 1974 2508 154
780 137 1753 -43 2468 -304 1211 -1049 1935 -2151 2089 -177 24 -643 24 -820
0 -557 -78 -992 -266 -1433 -622 -202 -163 -440 -408 -591 -608 l-51 -68 -3
2231 -2 2230 -340 0 -340 0 0 -5140z m3374 1436 c776 -126 1328 -611 1601
-1406 160 -468 235 -1104 206 -1743 -32 -711 -147 -1236 -370 -1700 -149 -308
-378 -604 -621 -800 -299 -242 -653 -393 -1075 -459 -190 -30 -637 -32 -815
-5 -271 42 -489 110 -715 222 -318 158 -587 402 -849 769 l-56 78 0 1856 0
1855 98 131 c135 179 265 327 418 476 457 443 895 664 1464 736 143 18 579 12
714 -10z"/>
<path d="M80075 14069 c-921 -62 -1679 -528 -2045 -1259 -254 -507 -308 -1132
-150 -1744 114 -445 403 -949 824 -1439 42 -49 76 -92 76 -95 0 -4 -55 -29
-123 -56 -164 -66 -472 -223 -634 -324 -642 -400 -1111 -921 -1382 -1533 -103
-234 -165 -448 -208 -714 -22 -139 -25 -598 -5 -745 40 -286 115 -532 233
-770 140 -280 302 -503 525 -720 430 -419 976 -677 1654 -783 116 -18 180 -21
455 -21 337 -1 444 6 715 50 778 124 1569 489 2190 1012 196 165 487 452 597
590 l18 23 730 -716 c402 -395 756 -737 788 -760 32 -24 83 -54 115 -67 55
-22 68 -23 452 -26 l395 -3 -30 29 c-434 424 -2061 2027 -2063 2032 -2 4 33
63 76 131 426 665 703 1409 796 2134 13 102 36 370 36 428 0 16 -17 17 -227
17 -258 0 -275 -4 -311 -77 -25 -49 -28 -62 -52 -239 -79 -558 -263 -1136
-519 -1629 -99 -191 -194 -350 -207 -350 -15 0 -3280 3211 -3422 3365 -514
557 -798 1038 -897 1517 -34 165 -45 274 -45 453 0 294 49 521 165 767 214
452 597 772 1099 918 224 64 523 94 759 76 252 -19 417 -62 622 -161 286 -138
522 -339 696 -593 107 -155 219 -406 256 -570 18 -84 35 -121 72 -160 37 -40
73 -57 123 -57 46 0 408 68 421 80 10 9 -10 198 -35 310 -56 262 -195 553
-371 780 -346 446 -870 755 -1461 865 -224 41 -441 52 -701 34z m868 -6688
l1487 -1462 -62 -77 c-104 -128 -464 -481 -608 -596 -584 -466 -1223 -732
-1965 -818 -174 -20 -625 -17 -760 5 -736 122 -1298 479 -1651 1050 -200 322
-288 651 -288 1082 0 397 80 726 263 1090 226 448 587 843 1047 1147 210 140
477 284 661 357 l48 19 170 -167 c94 -92 839 -825 1658 -1630z"/>
<path d="M21910 8965 l0 -4995 365 0 365 0 0 2261 0 2260 773 -4 c699 -3 779
-5 842 -21 140 -36 236 -100 336 -226 68 -85 3204 -4055 3255 -4120 28 -36 70
-77 95 -92 87 -54 132 -59 511 -56 l346 3 -1729 2175 c-951 1196 -1758 2207
-1794 2247 -36 40 -97 96 -136 125 l-71 52 148 23 c1437 213 2394 999 2630
2161 82 403 72 907 -26 1317 -169 711 -611 1229 -1310 1538 -423 186 -937 297
-1565 337 -96 6 -732 10 -1597 10 l-1438 0 0 -4995z m3115 4402 c262 -30 405
-55 595 -102 874 -218 1383 -713 1525 -1480 49 -267 57 -587 20 -842 -140
-975 -857 -1639 -1995 -1847 -325 -59 -325 -59 -1472 -63 l-1058 -4 0 2181 0
2181 1123 -4 c953 -3 1143 -6 1262 -20z"/>
<path d="M90090 8965 l0 -4995 1913 0 c1900 0 2085 3 2387 36 907 97 1752 432
2400 949 730 583 1257 1424 1519 2425 190 724 240 1628 136 2455 -155 1227
-681 2289 -1490 3005 -205 182 -472 373 -704 505 -603 342 -1322 550 -2093
605 -94 6 -856 10 -2107 10 l-1961 0 0 -4995z m3915 4405 c890 -53 1618 -311
2245 -796 137 -106 456 -421 561 -554 406 -515 679 -1119 819 -1810 77 -379
107 -672 117 -1105 26 -1253 -268 -2304 -867 -3100 -552 -733 -1363 -1214
-2325 -1379 -374 -63 -261 -60 -2082 -63 l-1663 -4 0 4404 c0 2422 3 4407 7
4410 11 11 3000 8 3188 -3z"/>
<path d="M171660 8965 l0 -4995 2725 0 2725 0 0 305 0 305 -2362 2 -2363 3 -3
4688 -2 4687 -360 0 -360 0 0 -4995z"/>
<path d="M164090 13441 c-24 -12 -44 -36 -62 -72 l-28 -54 -84 -1259 c-47
-693 -89 -1262 -93 -1266 -4 -3 -255 -23 -558 -44 -302 -20 -569 -40 -592 -43
l-43 -5 0 -152 c0 -167 9 -200 63 -240 28 -20 42 -21 575 -26 l547 -5 5 -2565
6 -2565 22 -115 c44 -226 90 -366 173 -520 175 -323 499 -542 922 -621 143
-27 447 -37 608 -20 467 48 955 275 1256 583 l62 63 -100 160 c-107 171 -140
205 -200 205 -41 0 -70 -17 -175 -102 -166 -133 -396 -263 -564 -318 -172 -56
-462 -65 -640 -20 -313 79 -532 293 -634 618 -65 208 -61 22 -61 2747 l0 2470
1108 3 1107 2 0 250 0 250 -1110 0 -1110 0 0 1340 0 1340 -183 0 c-158 0 -187
-2 -217 -19z"/>
<path d="M51033 11110 c-155 -12 -376 -44 -523 -77 -144 -32 -403 -116 -540
-177 -367 -161 -771 -440 -1115 -768 l-89 -84 71 -120 c100 -168 155 -214 256
-214 86 0 156 38 291 155 398 346 877 606 1281 694 199 44 614 65 811 42 219
-26 395 -76 561 -160 136 -68 232 -138 343 -250 268 -269 432 -656 497 -1172
14 -110 17 -228 17 -649 l1 -515 -285 -12 c-1369 -58 -2372 -256 -3095 -614
-710 -350 -1073 -831 -1102 -1459 -19 -413 82 -808 286 -1115 278 -421 757
-684 1361 -746 144 -15 551 -6 710 16 760 103 1328 401 2039 1069 62 59 115
106 117 104 2 -2 26 -209 53 -461 55 -495 57 -507 124 -569 51 -46 110 -58
294 -58 l163 0 0 2303 c0 2297 -3 2549 -36 2807 -84 675 -346 1228 -738 1557
-299 251 -660 402 -1096 458 -153 19 -492 27 -657 15z m1865 -4661 l2 -916
-153 -149 c-517 -504 -867 -736 -1347 -894 -335 -111 -730 -162 -1063 -139
-726 51 -1197 487 -1267 1174 -52 503 139 879 600 1178 548 355 1532 578 2860
647 113 6 230 12 260 14 30 1 66 2 80 2 l25 -1 3 -916z"/>
<path d="M58120 11113 c-686 -48 -1222 -365 -1622 -960 -131 -197 -283 -491
-378 -733 -18 -47 -36 -88 -39 -92 -4 -4 -17 317 -30 715 -12 397 -26 746 -31
775 -12 66 -35 117 -67 142 -39 31 -113 40 -323 40 l-200 0 0 -3515 0 -3515
340 0 340 0 0 2275 0 2275 64 178 c276 761 564 1197 975 1473 313 211 666 301
1116 285 184 -6 246 -15 433 -62 63 -16 136 -28 179 -28 66 -1 74 1 103 29 17
16 35 45 40 65 9 33 60 434 60 472 0 21 -110 75 -225 111 -186 58 -494 87
-735 70z"/>
<path d="M133650 11113 c-186 -10 -442 -55 -625 -108 -479 -140 -1009 -490
-1397 -922 -95 -105 -223 -260 -264 -317 -7 -11 -15 -18 -17 -15 -3 2 -20 253
-40 556 -34 526 -37 555 -59 595 -49 87 -84 97 -350 98 l-198 0 0 -4760 0
-4760 335 0 335 0 2 1711 3 1710 66 -83 c348 -435 812 -734 1334 -858 375 -89
832 -106 1248 -45 471 69 914 261 1307 565 125 97 346 318 451 450 449 568
713 1317 780 2210 16 211 6 861 -15 1080 -104 1035 -391 1742 -910 2238 -357
340 -795 548 -1321 626 -195 29 -461 41 -665 29z m400 -568 c504 -80 911 -303
1208 -660 335 -401 519 -933 599 -1725 25 -250 25 -948 0 -1170 -84 -748 -291
-1313 -641 -1755 -304 -382 -737 -654 -1208 -759 -237 -53 -323 -61 -628 -60
-316 0 -459 16 -685 74 -484 125 -903 433 -1259 927 l-66 92 0 1849 0 1848
100 133 c378 503 816 868 1269 1058 192 79 443 142 666 166 99 11 543 -1 645
-18z"/>
<path d="M180180 11109 c-717 -52 -1287 -285 -1896 -773 -128 -103 -364 -320
-364 -336 0 -5 30 -59 67 -122 99 -169 148 -208 264 -208 70 0 165 54 292 164
444 387 943 638 1412 711 146 23 526 32 666 16 704 -81 1150 -488 1335 -1219
73 -289 97 -588 92 -1167 l-3 -360 -285 -12 c-1641 -68 -2797 -350 -3504 -853
-349 -248 -574 -570 -663 -950 -46 -196 -43 -545 8 -795 75 -371 284 -719 564
-940 239 -188 515 -308 850 -369 348 -64 877 -41 1260 55 601 151 1063 427
1678 1001 65 61 119 109 121 107 1 -2 25 -212 53 -466 47 -435 52 -464 77
-506 56 -97 114 -117 338 -117 l158 0 -3 2478 c-3 2695 0 2529 -57 2837 -167
891 -625 1471 -1355 1710 -240 79 -463 114 -775 120 -113 2 -261 0 -330 -6z
m1868 -4661 l2 -917 -188 -178 c-399 -378 -621 -547 -931 -704 -358 -182 -726
-277 -1155 -298 -518 -25 -897 89 -1175 354 -187 178 -306 394 -361 653 -27
127 -38 386 -21 502 124 847 1183 1333 3216 1475 248 17 545 33 585 31 l25 -1
3 -917z"/>
<path d="M31825 11103 c-226 -15 -536 -69 -734 -129 -468 -142 -910 -408
-1237 -745 -523 -541 -838 -1299 -914 -2204 -13 -156 -13 -670 0 -850 116
-1596 866 -2716 2092 -3126 320 -107 618 -156 1003 -166 352 -9 632 18 981 93
573 122 1100 353 1444 631 80 65 220 201 251 244 l18 25 -105 130 c-57 70
-119 136 -137 146 -43 23 -112 22 -165 -2 -24 -11 -100 -60 -170 -109 -294
-207 -555 -341 -882 -452 -397 -136 -674 -176 -1152 -166 -199 4 -295 10 -393
26 -690 112 -1214 441 -1581 991 -362 545 -554 1285 -554 2141 l0 179 2588 2
c2578 3 2587 3 2622 23 61 36 74 78 78 253 9 339 -43 751 -134 1074 -68 245
-203 554 -337 770 -436 711 -1161 1143 -2042 1218 -110 9 -421 11 -540 3z
m625 -518 c931 -137 1580 -787 1770 -1770 27 -144 50 -373 50 -510 l0 -115
-2320 0 -2320 0 0 34 c0 48 44 300 74 426 77 326 196 624 349 873 392 640
1002 1007 1792 1077 146 13 470 5 605 -15z"/>
<path d="M38008 11099 c-515 -45 -978 -219 -1343 -504 -108 -84 -285 -270
-368 -385 -79 -112 -193 -337 -236 -467 -56 -169 -72 -271 -78 -480 -6 -211 4
-323 42 -483 83 -340 335 -663 699 -894 281 -179 558 -288 1397 -551 682 -214
814 -262 1039 -382 310 -165 532 -373 635 -597 141 -304 112 -773 -70 -1137
-160 -318 -415 -552 -767 -702 -277 -119 -518 -162 -898 -161 -429 1 -685 56
-1067 227 -194 87 -406 218 -576 356 -118 95 -174 123 -248 123 -119 0 -147
-23 -273 -218 -80 -122 -83 -130 -68 -148 61 -70 381 -302 563 -409 517 -303
997 -427 1654 -427 380 0 692 44 973 137 955 315 1492 1042 1492 2020 0 277
-35 461 -126 653 -97 205 -278 425 -467 569 -322 244 -653 385 -1602 681 -607
189 -753 243 -974 355 -221 112 -372 225 -510 380 -160 179 -233 404 -217 667
40 667 635 1182 1466 1269 144 15 505 6 650 -16 390 -60 742 -205 1117 -461
130 -89 201 -104 282 -61 36 18 56 43 127 157 46 74 83 141 84 148 0 25 -202
191 -365 298 -396 261 -831 401 -1374 444 -151 11 -461 11 -593 -1z"/>
<path d="M44465 11104 c-22 -2 -92 -9 -155 -15 -587 -55 -1140 -278 -1592
-642 -564 -453 -959 -1180 -1102 -2027 -48 -284 -60 -438 -60 -810 0 -641 73
-1133 240 -1621 375 -1092 1131 -1794 2184 -2029 441 -98 1002 -106 1490 -20
756 134 1438 451 1804 841 42 44 76 86 76 92 -1 24 -206 262 -240 279 -80 40
-155 15 -331 -109 -447 -318 -958 -526 -1470 -598 -155 -22 -637 -32 -795 -15
-1036 105 -1755 704 -2094 1745 -82 253 -144 553 -175 850 -14 135 -34 525
-35 673 l0 62 2573 0 c1806 0 2584 3 2611 11 96 27 112 77 109 354 -5 697
-177 1309 -510 1820 -96 147 -183 256 -308 384 -398 410 -906 661 -1525 752
-100 15 -201 21 -395 24 -143 1 -278 1 -300 -1z m575 -514 c326 -43 647 -159
895 -325 594 -397 925 -1060 962 -1923 l6 -152 -2324 2 -2324 3 3 45 c5 83 52
334 89 475 108 420 280 778 516 1070 83 103 269 284 372 361 356 270 780 420
1285 458 94 7 431 -2 520 -14z"/>
<path d="M62155 11103 c-244 -16 -539 -67 -740 -128 -1088 -329 -1828 -1205
-2080 -2460 -67 -332 -95 -634 -95 -1030 0 -527 56 -965 175 -1380 379 -1319
1299 -2113 2571 -2216 199 -16 571 -6 770 20 619 83 1171 304 1579 634 83 67
295 280 314 315 9 18 -3 37 -89 146 -54 68 -111 133 -125 142 -15 10 -50 19
-79 22 -70 6 -123 -22 -248 -131 -298 -258 -681 -460 -1049 -553 -333 -84
-824 -98 -1169 -33 -975 183 -1639 915 -1870 2059 -101 499 -118 1155 -44
1690 154 1113 680 1876 1524 2213 455 182 1130 220 1628 91 303 -78 631 -235
890 -425 165 -121 241 -136 324 -61 32 29 179 216 212 271 10 15 -4 28 -169
163 -222 181 -570 378 -845 478 -238 87 -526 146 -824 170 -118 9 -440 11
-561 3z"/>
<path d="M102515 11103 c-412 -33 -691 -94 -1000 -218 -991 -398 -1644 -1263
-1849 -2450 -51 -296 -61 -430 -60 -830 0 -387 11 -562 55 -855 175 -1172 747
-2064 1612 -2515 488 -255 1011 -367 1637 -352 339 8 569 39 910 123 502 123
928 312 1258 559 106 79 322 283 322 305 0 6 -48 70 -107 142 -113 138 -139
158 -213 158 -53 0 -118 -33 -256 -131 -439 -311 -938 -515 -1444 -590 -197
-30 -660 -38 -860 -15 -856 99 -1490 537 -1868 1292 -249 498 -367 1039 -388
1794 l-7 240 2594 2 c2555 3 2594 3 2626 23 72 43 89 146 73 453 -21 417 -76
726 -186 1044 -250 718 -693 1237 -1319 1544 -316 155 -627 239 -1005 274
-104 9 -427 11 -525 3z m600 -517 c449 -67 817 -238 1124 -523 437 -405 695
-1045 704 -1743 l2 -125 -2322 -3 c-2225 -2 -2323 -1 -2323 16 0 36 51 325 75
429 129 547 360 987 693 1320 377 376 850 586 1452 643 130 12 473 4 595 -14z"/>
<path d="M115874 11099 c-302 -23 -609 -88 -873 -185 -147 -54 -442 -203 -576
-292 -189 -124 -299 -214 -455 -371 -510 -512 -822 -1214 -926 -2081 -22 -182
-30 -744 -15 -967 53 -751 231 -1373 545 -1901 442 -743 1153 -1225 2026
-1372 232 -39 321 -45 630 -45 405 1 637 29 1029 126 510 127 971 340 1295
599 81 64 240 220 256 250 7 13 -14 45 -95 146 -58 71 -119 137 -137 147 -79
42 -156 17 -334 -112 -203 -145 -494 -306 -706 -389 -469 -183 -797 -240
-1330 -229 -288 6 -417 21 -637 77 -173 43 -306 92 -466 170 -797 389 -1285
1226 -1400 2400 -9 91 -19 283 -22 428 l-6 262 2569 0 c1823 0 2581 3 2609 11
104 28 120 83 112 404 -14 598 -125 1055 -370 1530 -131 253 -279 457 -467
645 -433 434 -1013 694 -1675 750 -136 11 -430 11 -581 -1z m666 -514 c1092
-157 1788 -1029 1822 -2280 l3 -110 -2322 -3 -2323 -2 0 27 c0 16 9 84 20 153
110 674 355 1196 745 1585 379 379 858 592 1450 645 143 12 470 4 605 -15z"/>
<path d="M125695 11103 c-489 -32 -948 -160 -1330 -370 -759 -417 -1261 -1129
-1483 -2103 -157 -685 -159 -1568 -6 -2260 78 -350 205 -697 357 -975 467
-853 1247 -1368 2257 -1490 184 -22 587 -31 777 -16 651 50 1185 240 1646 583
160 120 412 373 531 533 414 561 645 1239 706 2070 13 180 13 651 0 825 -62
837 -301 1539 -704 2074 -454 602 -1117 982 -1911 1096 -242 35 -598 49 -840
33z m709 -553 c272 -41 475 -102 694 -210 901 -442 1373 -1425 1372 -2858 -1
-1284 -385 -2208 -1120 -2695 -284 -188 -604 -302 -1010 -359 -147 -20 -632
-17 -785 5 -539 80 -954 277 -1294 618 -426 426 -688 1049 -775 1847 -38 341
-40 793 -6 1132 70 686 269 1252 591 1681 356 472 875 766 1494 843 185 24
194 24 455 21 185 -3 279 -9 384 -25z"/>
<path d="M140641 11099 c-491 -52 -924 -269 -1369 -685 -135 -127 -310 -325
-424 -479 -46 -63 -85 -114 -88 -114 -3 -1 -20 232 -38 517 -30 479 -34 520
-55 561 -45 90 -81 100 -354 101 l-203 0 0 -3515 0 -3515 340 0 340 0 0 2660
0 2661 62 92 c309 462 687 815 1073 1004 195 95 361 145 580 174 131 17 442 6
569 -20 463 -95 787 -354 996 -795 126 -265 199 -568 230 -950 6 -84 10 -955
10 -2477 l0 -2349 340 0 340 0 3 2393 3 2392 21 132 c41 246 88 411 173 603
99 224 225 408 394 575 141 139 263 227 441 315 262 129 461 178 766 187 348
10 587 -36 844 -161 505 -247 790 -708 897 -1449 l22 -152 3 -2417 4 -2418
335 0 335 0 -4 2433 c-4 2642 0 2484 -57 2807 -122 690 -443 1237 -910 1549
-369 247 -826 364 -1355 348 -620 -20 -1129 -222 -1529 -607 -274 -263 -452
-545 -591 -935 -39 -107 -44 -117 -50 -90 -88 382 -218 688 -401 947 -88 124
-299 332 -414 407 -232 153 -485 238 -799 270 -120 13 -359 12 -480 0z"/>
<path d="M151585 11103 c-978 -64 -1804 -528 -2308 -1296 -327 -498 -512
-1069 -577 -1782 -14 -153 -14 -656 0 -845 90 -1224 538 -2158 1309 -2729 341
-251 791 -440 1231 -516 286 -49 667 -68 945 -46 785 62 1549 332 2035 719 64
51 223 205 250 242 l18 26 -104 129 c-57 71 -119 137 -136 147 -78 41 -160 16
-315 -96 -286 -206 -573 -354 -903 -468 -393 -134 -677 -175 -1152 -165 -199
4 -295 10 -393 26 -525 85 -945 291 -1286 631 -550 548 -848 1423 -849 2497
l0 183 2588 2 c2578 3 2587 3 2622 23 61 36 74 78 78 254 11 444 -75 962 -224
1343 -260 668 -693 1156 -1279 1443 -315 155 -643 244 -1010 275 -110 9 -421
11 -540 3z m625 -518 c387 -58 736 -208 1014 -434 490 -398 778 -1036 803
-1783 l6 -178 -2321 0 -2322 0 0 34 c0 19 11 100 25 181 221 1306 1002 2089
2190 2195 139 12 479 4 605 -15z"/>
<path d="M159010 11100 c-225 -22 -482 -76 -675 -144 -532 -186 -1069 -571
-1505 -1080 -80 -93 -85 -97 -87 -70 -2 16 -17 258 -33 538 -23 374 -35 518
-46 545 -40 96 -88 111 -361 111 l-203 0 0 -3515 0 -3515 340 0 340 0 0 2639
0 2638 37 49 c154 205 439 498 638 657 345 276 747 477 1125 561 205 45 359
59 610 53 169 -4 256 -10 350 -27 341 -60 611 -188 822 -388 154 -147 256
-290 357 -503 120 -252 192 -543 220 -892 7 -85 11 -918 11 -2458 l0 -2329
340 0 340 0 0 2308 c0 1438 -4 2367 -10 2467 -47 749 -265 1329 -655 1743
-298 317 -737 526 -1255 597 -137 19 -561 28 -700 15z"/>
<path d="M106039 10933 c16 -37 683 -1619 1483 -3515 l1453 -3447 300 -1 300
0 1445 3427 c795 1885 1462 3467 1482 3516 l37 88 -292 -3 c-279 -3 -294 -4
-333 -25 -23 -12 -57 -40 -76 -62 -27 -32 -292 -654 -1208 -2833 -700 -1666
-1193 -2854 -1223 -2943 -27 -82 -66 -217 -87 -300 -32 -126 -39 -145 -45
-120 -46 189 -91 355 -128 465 -24 74 -569 1388 -1211 2920 -1244 2969 -1180
2824 -1271 2873 -38 21 -54 22 -347 25 l-308 3 29 -68z"/>
</g>
</svg>
