<?xml version="1.0" standalone="no"?>
<!DOCTYPE svg PUBLIC "-//W3C//DTD SVG 20010904//EN"
 "http://www.w3.org/TR/2001/REC-SVG-20010904/DTD/svg10.dtd">
<svg version="1.0" xmlns="http://www.w3.org/2000/svg"
 width="7154.000000pt" height="1681.000000pt" viewBox="0 0 7154.000000 1681.000000"
 preserveAspectRatio="xMidYMid meet">

<g transform="translate(0.000000,1681.000000) scale(0.100000,-0.100000)"
 stroke="none">
<path d="M0 8400 l0 -8400 8755 0 8755 0 0 8400 0 8400 -8755 0 -8755 0 0
-8400z m12277 5044 c646 -97 1098 -501 1217 -1089 40 -196 38 -477 -4 -683
-65 -322 -253 -672 -546 -1019 -123 -146 -295 -324 -1876 -1939 l-118 -120 57
7 c32 4 608 8 1281 8 1332 1 1247 5 1303 -56 46 -49 49 -63 49 -237 l0 -166
-1715 0 -1715 0 0 123 c0 109 3 128 25 176 21 45 143 173 743 780 1009 1021
1240 1257 1381 1411 441 481 633 840 671 1253 32 340 -67 654 -270 857 -288
288 -828 372 -1265 197 -327 -131 -566 -417 -653 -781 -31 -131 -66 -190 -132
-223 -52 -27 -95 -28 -228 -8 -170 27 -155 18 -147 84 3 31 16 99 27 151 159
749 691 1222 1452 1290 117 11 338 3 463 -16z m-5047 -2799 c990 -135 1614
-777 1799 -1848 59 -337 56 -202 56 -2852 l0 -2430 -154 -3 c-187 -3 -241 9
-306 69 -24 22 -51 59 -60 82 -9 26 -35 217 -64 485 -27 244 -51 446 -55 449
-3 3 -47 -34 -98 -83 -613 -586 -1124 -888 -1753 -1034 -347 -81 -851 -103
-1150 -51 -445 78 -754 229 -1026 500 -311 312 -458 670 -485 1186 -29 553
217 1035 706 1386 703 505 1956 806 3558 855 l222 7 0 456 c0 601 -16 783 -90
1076 -220 864 -793 1265 -1735 1214 -387 -20 -624 -84 -985 -264 -253 -126
-462 -270 -740 -509 -162 -140 -291 -161 -395 -65 -25 23 -74 92 -114 160
l-70 119 122 114 c399 375 851 665 1277 819 236 85 571 155 850 177 161 12
552 4 690 -15z"/>
<path d="M8170 6899 c-1272 -66 -2148 -233 -2745 -525 -659 -320 -917 -775
-809 -1424 74 -449 365 -804 782 -954 192 -69 366 -96 622 -96 381 0 717 61
1049 190 415 162 731 382 1199 835 l152 147 0 919 0 919 -47 -1 c-27 -1 -118
-6 -203 -10z"/>
<path d="M65660 8460 l0 -5140 223 0 c122 0 239 5 259 10 51 15 94 67 107 132
5 29 20 241 32 471 13 229 25 417 28 417 3 0 20 -22 38 -49 117 -180 378 -454
564 -593 426 -320 861 -460 1479 -475 554 -14 988 72 1415 282 278 136 482
282 706 505 238 237 407 476 569 805 251 510 391 1065 440 1750 13 180 13 730
0 905 -57 780 -249 1415 -575 1905 -322 484 -784 822 -1330 973 -264 74 -456
97 -795 97 -350 -1 -590 -32 -869 -115 -554 -165 -1087 -545 -1519 -1083 l-97
-121 -3 2232 -2 2232 -335 0 -335 0 0 -5140z m3258 1449 c379 -41 703 -162
982 -368 94 -68 263 -232 343 -331 339 -419 533 -1011 587 -1790 13 -189 13
-647 0 -842 -90 -1317 -562 -2192 -1402 -2592 -347 -166 -714 -236 -1167 -223
-358 10 -615 63 -910 188 -351 148 -673 422 -947 808 l-74 104 0 1844 0 1845
77 107 c325 445 750 826 1138 1019 262 130 488 193 850 235 72 9 434 6 523 -4z"/>
<path d="M32368 13420 c-661 -49 -1214 -282 -1627 -684 -292 -285 -489 -626
-586 -1010 -48 -191 -65 -316 -72 -531 -24 -769 233 -1410 871 -2173 61 -73
112 -136 113 -140 2 -4 -43 -25 -100 -47 -124 -48 -426 -195 -556 -272 -927
-543 -1524 -1344 -1683 -2259 -20 -114 -22 -164 -23 -429 0 -331 9 -424 66
-655 85 -342 256 -681 496 -980 368 -460 953 -809 1599 -954 260 -59 374 -70
719 -71 197 0 366 5 440 13 918 99 1745 454 2475 1061 117 97 453 426 551 538
l54 62 743 -729 c408 -400 766 -744 795 -763 107 -71 109 -71 542 -75 l390 -3
-85 86 c-47 48 -518 512 -1046 1032 l-962 945 73 113 c172 262 376 656 489
942 198 500 322 1048 344 1516 l7 137 -223 0 c-243 0 -262 -4 -301 -58 -26
-37 -47 -119 -66 -267 -47 -361 -164 -798 -316 -1181 -101 -256 -377 -789
-408 -789 -11 0 -2919 2854 -3261 3202 -449 455 -727 828 -907 1218 -255 555
-264 1201 -24 1699 123 255 342 507 571 659 242 160 513 261 811 301 324 45
644 21 904 -65 286 -95 597 -312 795 -554 164 -201 279 -438 359 -740 16 -61
64 -129 104 -148 51 -25 90 -22 306 20 l194 38 -6 96 c-25 410 -244 862 -583
1203 -363 364 -872 611 -1406 680 -148 20 -419 27 -570 16z m695 -6524 l1656
-1628 -77 -92 c-105 -124 -405 -423 -527 -525 -602 -500 -1262 -784 -2030
-873 -175 -20 -624 -17 -765 5 -800 128 -1427 570 -1749 1231 -197 405 -245
961 -125 1455 207 851 858 1563 1834 2007 63 29 118 52 121 51 3 -1 751 -735
1662 -1631z"/>
<path d="M21210 8315 l0 -4995 365 0 365 0 0 2261 0 2260 773 -4 c676 -3 781
-6 841 -20 105 -25 185 -67 254 -133 34 -33 795 -988 1692 -2124 896 -1136
1652 -2090 1680 -2122 55 -62 109 -93 191 -108 32 -6 195 -9 393 -8 l339 3
-1737 2185 c-955 1202 -1772 2220 -1814 2263 -42 43 -101 94 -131 115 -53 36
-53 37 -25 40 16 1 111 16 210 33 659 108 1228 346 1664 696 452 363 765 876
880 1443 56 274 71 683 36 975 -90 752 -412 1301 -984 1679 -371 244 -858 411
-1447 495 -388 56 -341 54 -2002 58 l-1543 4 0 -4996z m2942 4415 c542 -37
982 -142 1338 -320 588 -295 906 -764 986 -1456 23 -196 15 -549 -16 -724 -88
-499 -324 -911 -701 -1226 -362 -302 -886 -511 -1474 -588 -247 -32 -386 -36
-1361 -36 l-984 0 0 2180 0 2180 1029 0 c599 0 1094 -4 1183 -10z"/>
<path d="M38910 8315 l0 -4995 1918 0 c1909 0 2088 3 2387 36 1151 126 2156
611 2858 1380 618 676 1030 1578 1176 2579 92 629 94 1348 5 1965 -77 540
-218 1024 -433 1487 -373 804 -938 1441 -1665 1878 -539 324 -1186 540 -1866
624 -321 40 -406 41 -2419 41 l-1961 0 0 -4995z m4120 4392 c525 -58 966 -177
1375 -371 1078 -513 1799 -1505 2059 -2831 128 -651 142 -1439 40 -2140 -205
-1401 -923 -2475 -2024 -3029 -472 -236 -969 -370 -1554 -416 -80 -6 -730 -10
-1712 -10 l-1584 0 0 4403 c0 2422 3 4407 7 4411 4 4 734 5 1623 3 1433 -3
1632 -5 1770 -20z"/>
<path d="M52730 8315 l0 -4995 2730 0 2730 0 0 305 0 305 -2362 2 -2363 3 -3
4688 -2 4687 -365 0 -365 0 0 -4995z"/>
<path d="M61335 10464 c-303 -23 -470 -47 -675 -99 -526 -132 -1009 -407
-1506 -856 -189 -171 -176 -136 -98 -270 108 -184 164 -227 283 -216 78 7 134
38 257 143 220 190 457 355 657 459 440 229 763 304 1259 292 242 -5 368 -25
545 -82 220 -72 376 -168 539 -330 271 -270 424 -620 500 -1145 13 -92 18
-221 21 -656 l5 -541 -204 -7 c-1689 -57 -2914 -356 -3626 -885 -136 -101
-316 -288 -400 -414 -182 -273 -256 -522 -255 -857 0 -424 90 -746 291 -1045
279 -415 756 -674 1351 -736 145 -15 543 -6 711 15 336 44 653 137 947 276
350 167 662 394 1122 818 l90 83 5 -33 c3 -18 26 -224 51 -457 28 -254 52
-439 61 -460 19 -46 58 -87 109 -114 36 -20 58 -22 223 -25 l182 -4 0 2359 c0
1477 -4 2412 -10 2503 -45 640 -202 1126 -490 1515 -179 241 -380 406 -665
545 -220 108 -439 172 -705 205 -121 15 -474 27 -575 19z m1785 -4662 l0 -919
-162 -159 c-507 -497 -874 -737 -1373 -897 -396 -127 -893 -166 -1248 -97
-566 110 -946 494 -1032 1045 -45 292 -20 520 81 734 336 712 1479 1101 3524
1200 91 4 175 9 188 10 l22 1 0 -918z"/>
</g>
</svg>
